<mxfile host="Electron" modified="2025-01-10T18:48:24.829Z" agent="Mozilla/5.0 (Windows NT 10.0; Win64; x64) AppleWebKit/537.36 (KHTML, like Gecko) draw.io/21.2.1 Chrome/112.0.5615.87 Electron/24.1.2 Safari/537.36" etag="sWHjsUV6-Chgvg7jYBGK" version="21.2.1" type="device">
  <diagram name="Page-1" id="mbeiSYgY1RYhlt1mMdvA">
    <mxGraphModel dx="1628" dy="1560" grid="1" gridSize="10" guides="1" tooltips="1" connect="1" arrows="1" fold="1" page="1" pageScale="1" pageWidth="850" pageHeight="1100" math="0" shadow="0">
      <root>
        <mxCell id="0" />
        <mxCell id="1" parent="0" />
        <mxCell id="q2HD8VKpV2fzyemEzLiY-11" style="edgeStyle=orthogonalEdgeStyle;rounded=0;orthogonalLoop=1;jettySize=auto;html=1;exitX=1;exitY=0.5;exitDx=0;exitDy=0;entryX=0;entryY=0.5;entryDx=0;entryDy=0;fillColor=#fff2cc;strokeColor=#d6b656;strokeWidth=2;" parent="1" source="q2HD8VKpV2fzyemEzLiY-1" target="q2HD8VKpV2fzyemEzLiY-2" edge="1">
          <mxGeometry relative="1" as="geometry">
            <Array as="points">
              <mxPoint x="690" y="310" />
              <mxPoint x="690" y="270" />
            </Array>
          </mxGeometry>
        </mxCell>
        <mxCell id="q2HD8VKpV2fzyemEzLiY-13" style="edgeStyle=orthogonalEdgeStyle;rounded=0;orthogonalLoop=1;jettySize=auto;html=1;exitX=1;exitY=0.5;exitDx=0;exitDy=0;entryX=0;entryY=0.5;entryDx=0;entryDy=0;fillColor=#fff2cc;strokeColor=#d6b656;strokeWidth=2;" parent="1" source="q2HD8VKpV2fzyemEzLiY-1" target="q2HD8VKpV2fzyemEzLiY-3" edge="1">
          <mxGeometry relative="1" as="geometry">
            <Array as="points">
              <mxPoint x="710" y="310" />
              <mxPoint x="710" y="310" />
            </Array>
          </mxGeometry>
        </mxCell>
        <mxCell id="q2HD8VKpV2fzyemEzLiY-15" style="edgeStyle=orthogonalEdgeStyle;rounded=0;orthogonalLoop=1;jettySize=auto;html=1;exitX=1;exitY=0.5;exitDx=0;exitDy=0;entryX=0;entryY=0.5;entryDx=0;entryDy=0;fillColor=#fff2cc;strokeColor=#d6b656;strokeWidth=2;" parent="1" source="q2HD8VKpV2fzyemEzLiY-1" target="q2HD8VKpV2fzyemEzLiY-4" edge="1">
          <mxGeometry relative="1" as="geometry">
            <Array as="points">
              <mxPoint x="690" y="310" />
              <mxPoint x="690" y="350" />
            </Array>
          </mxGeometry>
        </mxCell>
        <mxCell id="q2HD8VKpV2fzyemEzLiY-17" style="edgeStyle=orthogonalEdgeStyle;rounded=0;orthogonalLoop=1;jettySize=auto;html=1;exitX=1;exitY=0.5;exitDx=0;exitDy=0;entryX=0;entryY=0.5;entryDx=0;entryDy=0;fillColor=#fff2cc;strokeColor=#d6b656;strokeWidth=2;" parent="1" source="q2HD8VKpV2fzyemEzLiY-1" target="q2HD8VKpV2fzyemEzLiY-5" edge="1">
          <mxGeometry relative="1" as="geometry">
            <Array as="points">
              <mxPoint x="690" y="310" />
              <mxPoint x="690" y="410" />
            </Array>
          </mxGeometry>
        </mxCell>
        <mxCell id="q2HD8VKpV2fzyemEzLiY-63" style="edgeStyle=orthogonalEdgeStyle;rounded=0;orthogonalLoop=1;jettySize=auto;html=1;exitX=0;exitY=1;exitDx=0;exitDy=0;entryX=1;entryY=0.5;entryDx=0;entryDy=0;fillColor=#fff2cc;strokeColor=#d6b656;strokeWidth=2;" parent="1" source="q2HD8VKpV2fzyemEzLiY-1" target="q2HD8VKpV2fzyemEzLiY-19" edge="1">
          <mxGeometry relative="1" as="geometry">
            <Array as="points">
              <mxPoint x="400" y="400" />
              <mxPoint x="170" y="400" />
              <mxPoint x="170" y="530" />
            </Array>
          </mxGeometry>
        </mxCell>
        <mxCell id="q2HD8VKpV2fzyemEzLiY-65" style="edgeStyle=orthogonalEdgeStyle;rounded=0;orthogonalLoop=1;jettySize=auto;html=1;exitX=0;exitY=1;exitDx=0;exitDy=0;entryX=1;entryY=0.5;entryDx=0;entryDy=0;fillColor=#fff2cc;strokeColor=#d6b656;strokeWidth=2;" parent="1" source="q2HD8VKpV2fzyemEzLiY-1" target="q2HD8VKpV2fzyemEzLiY-20" edge="1">
          <mxGeometry relative="1" as="geometry">
            <Array as="points">
              <mxPoint x="400" y="400" />
              <mxPoint x="170" y="400" />
              <mxPoint x="170" y="570" />
            </Array>
          </mxGeometry>
        </mxCell>
        <mxCell id="q2HD8VKpV2fzyemEzLiY-66" style="edgeStyle=orthogonalEdgeStyle;rounded=0;orthogonalLoop=1;jettySize=auto;html=1;entryX=1;entryY=0.5;entryDx=0;entryDy=0;fillColor=#fff2cc;strokeColor=#d6b656;strokeWidth=2;" parent="1" target="q2HD8VKpV2fzyemEzLiY-21" edge="1">
          <mxGeometry relative="1" as="geometry">
            <mxPoint x="400" y="330" as="sourcePoint" />
            <Array as="points">
              <mxPoint x="400" y="400" />
              <mxPoint x="170" y="400" />
              <mxPoint x="170" y="610" />
            </Array>
          </mxGeometry>
        </mxCell>
        <mxCell id="q2HD8VKpV2fzyemEzLiY-67" style="edgeStyle=orthogonalEdgeStyle;rounded=0;orthogonalLoop=1;jettySize=auto;html=1;exitX=0;exitY=1;exitDx=0;exitDy=0;entryX=1;entryY=0.5;entryDx=0;entryDy=0;fillColor=#fff2cc;strokeColor=#d6b656;strokeWidth=2;" parent="1" source="q2HD8VKpV2fzyemEzLiY-1" target="q2HD8VKpV2fzyemEzLiY-22" edge="1">
          <mxGeometry relative="1" as="geometry">
            <Array as="points">
              <mxPoint x="400" y="400" />
              <mxPoint x="170" y="400" />
              <mxPoint x="170" y="670" />
            </Array>
          </mxGeometry>
        </mxCell>
        <mxCell id="q2HD8VKpV2fzyemEzLiY-99" value="directedBy" style="edgeLabel;html=1;align=center;verticalAlign=middle;resizable=0;points=[];" parent="q2HD8VKpV2fzyemEzLiY-67" vertex="1" connectable="0">
          <mxGeometry x="-0.3549" relative="1" as="geometry">
            <mxPoint x="9" y="-1" as="offset" />
          </mxGeometry>
        </mxCell>
        <mxCell id="q2HD8VKpV2fzyemEzLiY-68" style="edgeStyle=orthogonalEdgeStyle;rounded=0;orthogonalLoop=1;jettySize=auto;html=1;exitX=0;exitY=1;exitDx=0;exitDy=0;entryX=1;entryY=0.5;entryDx=0;entryDy=0;fillColor=#fff2cc;strokeColor=#d6b656;strokeWidth=2;" parent="1" source="q2HD8VKpV2fzyemEzLiY-1" target="q2HD8VKpV2fzyemEzLiY-43" edge="1">
          <mxGeometry relative="1" as="geometry">
            <Array as="points">
              <mxPoint x="400" y="430" />
              <mxPoint x="210" y="430" />
              <mxPoint x="210" y="730" />
            </Array>
          </mxGeometry>
        </mxCell>
        <mxCell id="q2HD8VKpV2fzyemEzLiY-69" style="edgeStyle=orthogonalEdgeStyle;rounded=0;orthogonalLoop=1;jettySize=auto;html=1;exitX=0;exitY=1;exitDx=0;exitDy=0;entryX=1;entryY=0.5;entryDx=0;entryDy=0;fillColor=#fff2cc;strokeColor=#d6b656;strokeWidth=2;" parent="1" source="q2HD8VKpV2fzyemEzLiY-1" target="q2HD8VKpV2fzyemEzLiY-44" edge="1">
          <mxGeometry relative="1" as="geometry">
            <Array as="points">
              <mxPoint x="400" y="430" />
              <mxPoint x="210" y="430" />
              <mxPoint x="210" y="770" />
            </Array>
          </mxGeometry>
        </mxCell>
        <mxCell id="q2HD8VKpV2fzyemEzLiY-70" style="edgeStyle=orthogonalEdgeStyle;rounded=0;orthogonalLoop=1;jettySize=auto;html=1;exitX=0;exitY=1;exitDx=0;exitDy=0;entryX=1;entryY=0.5;entryDx=0;entryDy=0;fillColor=#fff2cc;strokeColor=#d6b656;strokeWidth=2;" parent="1" source="q2HD8VKpV2fzyemEzLiY-1" target="q2HD8VKpV2fzyemEzLiY-45" edge="1">
          <mxGeometry relative="1" as="geometry">
            <Array as="points">
              <mxPoint x="400" y="430" />
              <mxPoint x="210" y="430" />
              <mxPoint x="210" y="810" />
            </Array>
          </mxGeometry>
        </mxCell>
        <mxCell id="q2HD8VKpV2fzyemEzLiY-71" style="edgeStyle=orthogonalEdgeStyle;rounded=0;orthogonalLoop=1;jettySize=auto;html=1;exitX=0;exitY=1;exitDx=0;exitDy=0;entryX=1;entryY=0.5;entryDx=0;entryDy=0;fillColor=#fff2cc;strokeColor=#d6b656;strokeWidth=2;" parent="1" source="q2HD8VKpV2fzyemEzLiY-1" target="q2HD8VKpV2fzyemEzLiY-46" edge="1">
          <mxGeometry relative="1" as="geometry">
            <Array as="points">
              <mxPoint x="400" y="430" />
              <mxPoint x="210" y="430" />
              <mxPoint x="210" y="870" />
            </Array>
          </mxGeometry>
        </mxCell>
        <mxCell id="q2HD8VKpV2fzyemEzLiY-102" value="editedBy" style="edgeLabel;html=1;align=center;verticalAlign=middle;resizable=0;points=[];" parent="q2HD8VKpV2fzyemEzLiY-71" vertex="1" connectable="0">
          <mxGeometry x="-0.4644" y="-1" relative="1" as="geometry">
            <mxPoint x="8" as="offset" />
          </mxGeometry>
        </mxCell>
        <mxCell id="q2HD8VKpV2fzyemEzLiY-72" style="edgeStyle=orthogonalEdgeStyle;rounded=0;orthogonalLoop=1;jettySize=auto;html=1;exitX=0;exitY=1;exitDx=0;exitDy=0;entryX=1;entryY=0.5;entryDx=0;entryDy=0;fillColor=#fff2cc;strokeColor=#d6b656;strokeWidth=2;" parent="1" source="q2HD8VKpV2fzyemEzLiY-1" target="q2HD8VKpV2fzyemEzLiY-25" edge="1">
          <mxGeometry relative="1" as="geometry">
            <Array as="points">
              <mxPoint x="400" y="460" />
              <mxPoint x="330" y="460" />
              <mxPoint x="330" y="530" />
            </Array>
          </mxGeometry>
        </mxCell>
        <mxCell id="q2HD8VKpV2fzyemEzLiY-73" style="edgeStyle=orthogonalEdgeStyle;rounded=0;orthogonalLoop=1;jettySize=auto;html=1;exitX=0;exitY=1;exitDx=0;exitDy=0;entryX=1;entryY=0.5;entryDx=0;entryDy=0;fillColor=#fff2cc;strokeColor=#d6b656;strokeWidth=2;" parent="1" source="q2HD8VKpV2fzyemEzLiY-1" target="q2HD8VKpV2fzyemEzLiY-26" edge="1">
          <mxGeometry relative="1" as="geometry">
            <Array as="points">
              <mxPoint x="400" y="460" />
              <mxPoint x="330" y="460" />
              <mxPoint x="330" y="570" />
            </Array>
          </mxGeometry>
        </mxCell>
        <mxCell id="q2HD8VKpV2fzyemEzLiY-74" style="edgeStyle=orthogonalEdgeStyle;rounded=0;orthogonalLoop=1;jettySize=auto;html=1;exitX=0;exitY=1;exitDx=0;exitDy=0;entryX=1;entryY=0.5;entryDx=0;entryDy=0;fillColor=#fff2cc;strokeColor=#d6b656;strokeWidth=2;" parent="1" source="q2HD8VKpV2fzyemEzLiY-1" target="q2HD8VKpV2fzyemEzLiY-27" edge="1">
          <mxGeometry relative="1" as="geometry">
            <Array as="points">
              <mxPoint x="400" y="460" />
              <mxPoint x="330" y="460" />
              <mxPoint x="330" y="610" />
            </Array>
          </mxGeometry>
        </mxCell>
        <mxCell id="q2HD8VKpV2fzyemEzLiY-75" style="edgeStyle=orthogonalEdgeStyle;rounded=0;orthogonalLoop=1;jettySize=auto;html=1;entryX=1;entryY=0.5;entryDx=0;entryDy=0;fillColor=#fff2cc;strokeColor=#d6b656;strokeWidth=2;" parent="1" target="q2HD8VKpV2fzyemEzLiY-28" edge="1">
          <mxGeometry relative="1" as="geometry">
            <mxPoint x="400" y="330" as="sourcePoint" />
            <Array as="points">
              <mxPoint x="400" y="460" />
              <mxPoint x="330" y="460" />
              <mxPoint x="330" y="670" />
            </Array>
          </mxGeometry>
        </mxCell>
        <mxCell id="q2HD8VKpV2fzyemEzLiY-101" value="writtenBy" style="edgeLabel;html=1;align=center;verticalAlign=middle;resizable=0;points=[];" parent="q2HD8VKpV2fzyemEzLiY-75" vertex="1" connectable="0">
          <mxGeometry x="-0.2248" relative="1" as="geometry">
            <mxPoint x="6" as="offset" />
          </mxGeometry>
        </mxCell>
        <mxCell id="q2HD8VKpV2fzyemEzLiY-76" style="edgeStyle=orthogonalEdgeStyle;rounded=0;orthogonalLoop=1;jettySize=auto;html=1;exitX=0;exitY=1;exitDx=0;exitDy=0;entryX=1;entryY=0.5;entryDx=0;entryDy=0;fillColor=#fff2cc;strokeColor=#d6b656;strokeWidth=2;" parent="1" source="q2HD8VKpV2fzyemEzLiY-1" target="q2HD8VKpV2fzyemEzLiY-48" edge="1">
          <mxGeometry relative="1" as="geometry">
            <Array as="points">
              <mxPoint x="400" y="730" />
            </Array>
          </mxGeometry>
        </mxCell>
        <mxCell id="q2HD8VKpV2fzyemEzLiY-77" style="edgeStyle=orthogonalEdgeStyle;rounded=0;orthogonalLoop=1;jettySize=auto;html=1;exitX=0;exitY=1;exitDx=0;exitDy=0;entryX=1;entryY=0.5;entryDx=0;entryDy=0;fillColor=#fff2cc;strokeColor=#d6b656;strokeWidth=2;" parent="1" source="q2HD8VKpV2fzyemEzLiY-1" target="q2HD8VKpV2fzyemEzLiY-49" edge="1">
          <mxGeometry relative="1" as="geometry">
            <Array as="points">
              <mxPoint x="400" y="770" />
            </Array>
          </mxGeometry>
        </mxCell>
        <mxCell id="q2HD8VKpV2fzyemEzLiY-78" style="edgeStyle=orthogonalEdgeStyle;rounded=0;orthogonalLoop=1;jettySize=auto;html=1;exitX=0;exitY=1;exitDx=0;exitDy=0;entryX=1;entryY=0.5;entryDx=0;entryDy=0;fillColor=#fff2cc;strokeColor=#d6b656;strokeWidth=2;" parent="1" source="q2HD8VKpV2fzyemEzLiY-1" target="q2HD8VKpV2fzyemEzLiY-50" edge="1">
          <mxGeometry relative="1" as="geometry">
            <Array as="points">
              <mxPoint x="400" y="810" />
            </Array>
          </mxGeometry>
        </mxCell>
        <mxCell id="q2HD8VKpV2fzyemEzLiY-79" style="edgeStyle=orthogonalEdgeStyle;rounded=0;orthogonalLoop=1;jettySize=auto;html=1;exitX=0;exitY=1;exitDx=0;exitDy=0;entryX=1;entryY=0.5;entryDx=0;entryDy=0;fillColor=#fff2cc;strokeColor=#d6b656;strokeWidth=2;" parent="1" source="q2HD8VKpV2fzyemEzLiY-1" target="q2HD8VKpV2fzyemEzLiY-51" edge="1">
          <mxGeometry relative="1" as="geometry">
            <Array as="points">
              <mxPoint x="400" y="870" />
            </Array>
          </mxGeometry>
        </mxCell>
        <mxCell id="q2HD8VKpV2fzyemEzLiY-103" value="soundsBy" style="edgeLabel;html=1;align=center;verticalAlign=middle;resizable=0;points=[];" parent="q2HD8VKpV2fzyemEzLiY-79" vertex="1" connectable="0">
          <mxGeometry x="-0.4361" relative="1" as="geometry">
            <mxPoint y="-14" as="offset" />
          </mxGeometry>
        </mxCell>
        <mxCell id="q2HD8VKpV2fzyemEzLiY-83" style="edgeStyle=orthogonalEdgeStyle;rounded=0;orthogonalLoop=1;jettySize=auto;html=1;exitX=1;exitY=1;exitDx=0;exitDy=0;entryX=0;entryY=0.5;entryDx=0;entryDy=0;strokeWidth=2;fillColor=#fff2cc;strokeColor=#d6b656;" parent="1" source="q2HD8VKpV2fzyemEzLiY-1" target="q2HD8VKpV2fzyemEzLiY-53" edge="1">
          <mxGeometry relative="1" as="geometry">
            <Array as="points">
              <mxPoint x="440" y="710" />
            </Array>
          </mxGeometry>
        </mxCell>
        <mxCell id="q2HD8VKpV2fzyemEzLiY-84" style="edgeStyle=orthogonalEdgeStyle;rounded=0;orthogonalLoop=1;jettySize=auto;html=1;exitX=1;exitY=1;exitDx=0;exitDy=0;entryX=0;entryY=0.5;entryDx=0;entryDy=0;fillColor=#fff2cc;strokeColor=#d6b656;strokeWidth=2;" parent="1" source="q2HD8VKpV2fzyemEzLiY-1" target="q2HD8VKpV2fzyemEzLiY-33" edge="1">
          <mxGeometry relative="1" as="geometry">
            <Array as="points">
              <mxPoint x="440" y="460" />
              <mxPoint x="510" y="460" />
              <mxPoint x="510" y="670" />
            </Array>
          </mxGeometry>
        </mxCell>
        <mxCell id="q2HD8VKpV2fzyemEzLiY-85" style="edgeStyle=orthogonalEdgeStyle;rounded=0;orthogonalLoop=1;jettySize=auto;html=1;exitX=1;exitY=1;exitDx=0;exitDy=0;entryX=0;entryY=0.5;entryDx=0;entryDy=0;fillColor=#fff2cc;strokeColor=#d6b656;strokeWidth=2;" parent="1" source="q2HD8VKpV2fzyemEzLiY-1" target="q2HD8VKpV2fzyemEzLiY-32" edge="1">
          <mxGeometry relative="1" as="geometry">
            <Array as="points">
              <mxPoint x="440" y="460" />
              <mxPoint x="510" y="460" />
              <mxPoint x="510" y="610" />
            </Array>
          </mxGeometry>
        </mxCell>
        <mxCell id="q2HD8VKpV2fzyemEzLiY-86" style="edgeStyle=orthogonalEdgeStyle;rounded=0;orthogonalLoop=1;jettySize=auto;html=1;exitX=1;exitY=1;exitDx=0;exitDy=0;entryX=0;entryY=0.5;entryDx=0;entryDy=0;fillColor=#fff2cc;strokeColor=#d6b656;strokeWidth=2;" parent="1" source="q2HD8VKpV2fzyemEzLiY-1" target="q2HD8VKpV2fzyemEzLiY-31" edge="1">
          <mxGeometry relative="1" as="geometry">
            <Array as="points">
              <mxPoint x="440" y="460" />
              <mxPoint x="510" y="460" />
              <mxPoint x="510" y="570" />
            </Array>
          </mxGeometry>
        </mxCell>
        <mxCell id="q2HD8VKpV2fzyemEzLiY-87" style="edgeStyle=orthogonalEdgeStyle;rounded=0;orthogonalLoop=1;jettySize=auto;html=1;exitX=1;exitY=1;exitDx=0;exitDy=0;entryX=0;entryY=0.5;entryDx=0;entryDy=0;fillColor=#fff2cc;strokeColor=#d6b656;strokeWidth=2;" parent="1" source="q2HD8VKpV2fzyemEzLiY-1" target="q2HD8VKpV2fzyemEzLiY-30" edge="1">
          <mxGeometry relative="1" as="geometry">
            <Array as="points">
              <mxPoint x="440" y="460" />
              <mxPoint x="510" y="460" />
              <mxPoint x="510" y="530" />
            </Array>
          </mxGeometry>
        </mxCell>
        <mxCell id="q2HD8VKpV2fzyemEzLiY-106" value="producedBy" style="edgeLabel;html=1;align=center;verticalAlign=middle;resizable=0;points=[];" parent="q2HD8VKpV2fzyemEzLiY-87" vertex="1" connectable="0">
          <mxGeometry x="0.0461" y="-1" relative="1" as="geometry">
            <mxPoint x="8" y="-2" as="offset" />
          </mxGeometry>
        </mxCell>
        <mxCell id="q2HD8VKpV2fzyemEzLiY-88" style="edgeStyle=orthogonalEdgeStyle;rounded=0;orthogonalLoop=1;jettySize=auto;html=1;exitX=1;exitY=1;exitDx=0;exitDy=0;entryX=0;entryY=0.5;entryDx=0;entryDy=0;strokeWidth=2;fillColor=#fff2cc;strokeColor=#d6b656;" parent="1" source="q2HD8VKpV2fzyemEzLiY-1" target="q2HD8VKpV2fzyemEzLiY-54" edge="1">
          <mxGeometry relative="1" as="geometry">
            <Array as="points">
              <mxPoint x="440" y="750" />
            </Array>
          </mxGeometry>
        </mxCell>
        <mxCell id="q2HD8VKpV2fzyemEzLiY-89" style="edgeStyle=orthogonalEdgeStyle;rounded=0;orthogonalLoop=1;jettySize=auto;html=1;exitX=1;exitY=1;exitDx=0;exitDy=0;entryX=0;entryY=0.5;entryDx=0;entryDy=0;strokeWidth=2;fillColor=#fff2cc;strokeColor=#d6b656;" parent="1" source="q2HD8VKpV2fzyemEzLiY-1" target="q2HD8VKpV2fzyemEzLiY-55" edge="1">
          <mxGeometry relative="1" as="geometry">
            <Array as="points">
              <mxPoint x="440" y="790" />
            </Array>
          </mxGeometry>
        </mxCell>
        <mxCell id="q2HD8VKpV2fzyemEzLiY-90" style="edgeStyle=orthogonalEdgeStyle;rounded=0;orthogonalLoop=1;jettySize=auto;html=1;exitX=1;exitY=1;exitDx=0;exitDy=0;entryX=0;entryY=0.5;entryDx=0;entryDy=0;strokeWidth=2;fillColor=#fff2cc;strokeColor=#d6b656;" parent="1" source="q2HD8VKpV2fzyemEzLiY-1" target="q2HD8VKpV2fzyemEzLiY-56" edge="1">
          <mxGeometry relative="1" as="geometry">
            <Array as="points">
              <mxPoint x="440" y="850" />
            </Array>
          </mxGeometry>
        </mxCell>
        <mxCell id="q2HD8VKpV2fzyemEzLiY-107" value="lightingBy" style="edgeLabel;html=1;align=center;verticalAlign=middle;resizable=0;points=[];" parent="q2HD8VKpV2fzyemEzLiY-90" vertex="1" connectable="0">
          <mxGeometry x="-0.3942" relative="1" as="geometry">
            <mxPoint y="7" as="offset" />
          </mxGeometry>
        </mxCell>
        <mxCell id="q2HD8VKpV2fzyemEzLiY-91" style="edgeStyle=orthogonalEdgeStyle;rounded=0;orthogonalLoop=1;jettySize=auto;html=1;exitX=1;exitY=1;exitDx=0;exitDy=0;entryX=0;entryY=0.5;entryDx=0;entryDy=0;strokeWidth=2;fillColor=#fff2cc;strokeColor=#d6b656;" parent="1" source="q2HD8VKpV2fzyemEzLiY-1" target="q2HD8VKpV2fzyemEzLiY-58" edge="1">
          <mxGeometry relative="1" as="geometry">
            <Array as="points">
              <mxPoint x="440" y="430" />
              <mxPoint x="620" y="430" />
              <mxPoint x="620" y="710" />
            </Array>
          </mxGeometry>
        </mxCell>
        <mxCell id="q2HD8VKpV2fzyemEzLiY-92" style="edgeStyle=orthogonalEdgeStyle;rounded=0;orthogonalLoop=1;jettySize=auto;html=1;exitX=1;exitY=1;exitDx=0;exitDy=0;entryX=0;entryY=0.5;entryDx=0;entryDy=0;fillColor=#fff2cc;strokeColor=#d6b656;strokeWidth=2;" parent="1" source="q2HD8VKpV2fzyemEzLiY-1" target="q2HD8VKpV2fzyemEzLiY-35" edge="1">
          <mxGeometry relative="1" as="geometry">
            <Array as="points">
              <mxPoint x="440" y="400" />
              <mxPoint x="660" y="400" />
              <mxPoint x="660" y="530" />
            </Array>
          </mxGeometry>
        </mxCell>
        <mxCell id="q2HD8VKpV2fzyemEzLiY-93" style="edgeStyle=orthogonalEdgeStyle;rounded=0;orthogonalLoop=1;jettySize=auto;html=1;exitX=1;exitY=1;exitDx=0;exitDy=0;entryX=0;entryY=0.5;entryDx=0;entryDy=0;strokeWidth=2;fillColor=#fff2cc;strokeColor=#d6b656;" parent="1" source="q2HD8VKpV2fzyemEzLiY-1" target="q2HD8VKpV2fzyemEzLiY-60" edge="1">
          <mxGeometry relative="1" as="geometry">
            <Array as="points">
              <mxPoint x="440" y="430" />
              <mxPoint x="620" y="430" />
              <mxPoint x="620" y="750" />
            </Array>
          </mxGeometry>
        </mxCell>
        <mxCell id="q2HD8VKpV2fzyemEzLiY-94" style="edgeStyle=orthogonalEdgeStyle;rounded=0;orthogonalLoop=1;jettySize=auto;html=1;exitX=1;exitY=1;exitDx=0;exitDy=0;entryX=0;entryY=0.5;entryDx=0;entryDy=0;strokeWidth=2;fillColor=#fff2cc;strokeColor=#d6b656;" parent="1" source="q2HD8VKpV2fzyemEzLiY-1" target="q2HD8VKpV2fzyemEzLiY-61" edge="1">
          <mxGeometry relative="1" as="geometry">
            <Array as="points">
              <mxPoint x="440" y="430" />
              <mxPoint x="620" y="430" />
              <mxPoint x="620" y="790" />
            </Array>
          </mxGeometry>
        </mxCell>
        <mxCell id="q2HD8VKpV2fzyemEzLiY-95" style="edgeStyle=orthogonalEdgeStyle;rounded=0;orthogonalLoop=1;jettySize=auto;html=1;exitX=1;exitY=1;exitDx=0;exitDy=0;entryX=0;entryY=0.5;entryDx=0;entryDy=0;strokeWidth=2;fillColor=#fff2cc;strokeColor=#d6b656;" parent="1" source="q2HD8VKpV2fzyemEzLiY-1" target="q2HD8VKpV2fzyemEzLiY-62" edge="1">
          <mxGeometry relative="1" as="geometry">
            <Array as="points">
              <mxPoint x="440" y="430" />
              <mxPoint x="620" y="430" />
              <mxPoint x="620" y="850" />
            </Array>
          </mxGeometry>
        </mxCell>
        <mxCell id="q2HD8VKpV2fzyemEzLiY-105" value="visualEffectsBy" style="edgeLabel;html=1;align=center;verticalAlign=middle;resizable=0;points=[];" parent="q2HD8VKpV2fzyemEzLiY-95" vertex="1" connectable="0">
          <mxGeometry x="-0.4965" relative="1" as="geometry">
            <mxPoint x="14" as="offset" />
          </mxGeometry>
        </mxCell>
        <mxCell id="q2HD8VKpV2fzyemEzLiY-96" style="edgeStyle=orthogonalEdgeStyle;rounded=0;orthogonalLoop=1;jettySize=auto;html=1;exitX=1;exitY=1;exitDx=0;exitDy=0;entryX=0;entryY=0.5;entryDx=0;entryDy=0;fillColor=#fff2cc;strokeColor=#d6b656;strokeWidth=2;" parent="1" source="q2HD8VKpV2fzyemEzLiY-1" target="q2HD8VKpV2fzyemEzLiY-40" edge="1">
          <mxGeometry relative="1" as="geometry">
            <Array as="points">
              <mxPoint x="440" y="400" />
              <mxPoint x="660" y="400" />
              <mxPoint x="660" y="570" />
            </Array>
          </mxGeometry>
        </mxCell>
        <mxCell id="q2HD8VKpV2fzyemEzLiY-97" style="edgeStyle=orthogonalEdgeStyle;rounded=0;orthogonalLoop=1;jettySize=auto;html=1;exitX=1;exitY=1;exitDx=0;exitDy=0;entryX=0;entryY=0.5;entryDx=0;entryDy=0;fillColor=#fff2cc;strokeColor=#d6b656;strokeWidth=2;" parent="1" source="q2HD8VKpV2fzyemEzLiY-1" target="q2HD8VKpV2fzyemEzLiY-41" edge="1">
          <mxGeometry relative="1" as="geometry">
            <Array as="points">
              <mxPoint x="440" y="400" />
              <mxPoint x="660" y="400" />
              <mxPoint x="660" y="610" />
            </Array>
          </mxGeometry>
        </mxCell>
        <mxCell id="q2HD8VKpV2fzyemEzLiY-98" style="edgeStyle=orthogonalEdgeStyle;rounded=0;orthogonalLoop=1;jettySize=auto;html=1;exitX=1;exitY=1;exitDx=0;exitDy=0;entryX=0;entryY=0.5;entryDx=0;entryDy=0;fillColor=#fff2cc;strokeColor=#d6b656;strokeWidth=2;" parent="1" source="q2HD8VKpV2fzyemEzLiY-1" target="q2HD8VKpV2fzyemEzLiY-42" edge="1">
          <mxGeometry relative="1" as="geometry">
            <Array as="points">
              <mxPoint x="440" y="400" />
              <mxPoint x="660" y="400" />
              <mxPoint x="660" y="670" />
            </Array>
          </mxGeometry>
        </mxCell>
        <mxCell id="q2HD8VKpV2fzyemEzLiY-104" value="supportingArtists" style="edgeLabel;html=1;align=center;verticalAlign=middle;resizable=0;points=[];" parent="q2HD8VKpV2fzyemEzLiY-98" vertex="1" connectable="0">
          <mxGeometry x="-0.4335" y="1" relative="1" as="geometry">
            <mxPoint x="17" as="offset" />
          </mxGeometry>
        </mxCell>
        <mxCell id="q2HD8VKpV2fzyemEzLiY-113" style="edgeStyle=orthogonalEdgeStyle;rounded=0;orthogonalLoop=1;jettySize=auto;html=1;exitX=0;exitY=1;exitDx=0;exitDy=0;entryX=1;entryY=0.5;entryDx=0;entryDy=0;fillColor=#fff2cc;strokeColor=#d6b656;strokeWidth=2;" parent="1" source="q2HD8VKpV2fzyemEzLiY-1" target="q2HD8VKpV2fzyemEzLiY-108" edge="1">
          <mxGeometry relative="1" as="geometry" />
        </mxCell>
        <mxCell id="q2HD8VKpV2fzyemEzLiY-114" style="edgeStyle=orthogonalEdgeStyle;rounded=0;orthogonalLoop=1;jettySize=auto;html=1;exitX=0;exitY=1;exitDx=0;exitDy=0;entryX=1;entryY=0.5;entryDx=0;entryDy=0;fillColor=#fff2cc;strokeColor=#d6b656;strokeWidth=2;" parent="1" source="q2HD8VKpV2fzyemEzLiY-1" target="q2HD8VKpV2fzyemEzLiY-109" edge="1">
          <mxGeometry relative="1" as="geometry">
            <Array as="points">
              <mxPoint x="110" y="330" />
              <mxPoint x="110" y="370" />
            </Array>
          </mxGeometry>
        </mxCell>
        <mxCell id="q2HD8VKpV2fzyemEzLiY-115" style="edgeStyle=orthogonalEdgeStyle;rounded=0;orthogonalLoop=1;jettySize=auto;html=1;exitX=0;exitY=1;exitDx=0;exitDy=0;entryX=1;entryY=0.5;entryDx=0;entryDy=0;strokeWidth=2;fillColor=#fff2cc;strokeColor=#d6b656;" parent="1" source="q2HD8VKpV2fzyemEzLiY-1" target="q2HD8VKpV2fzyemEzLiY-110" edge="1">
          <mxGeometry relative="1" as="geometry">
            <Array as="points">
              <mxPoint x="110" y="330" />
              <mxPoint x="110" y="410" />
            </Array>
          </mxGeometry>
        </mxCell>
        <mxCell id="q2HD8VKpV2fzyemEzLiY-116" style="edgeStyle=orthogonalEdgeStyle;rounded=0;orthogonalLoop=1;jettySize=auto;html=1;exitX=0;exitY=1;exitDx=0;exitDy=0;entryX=1;entryY=0.5;entryDx=0;entryDy=0;strokeWidth=2;fillColor=#fff2cc;strokeColor=#d6b656;" parent="1" source="q2HD8VKpV2fzyemEzLiY-1" target="q2HD8VKpV2fzyemEzLiY-111" edge="1">
          <mxGeometry relative="1" as="geometry">
            <Array as="points">
              <mxPoint x="110" y="330" />
              <mxPoint x="110" y="470" />
            </Array>
          </mxGeometry>
        </mxCell>
        <mxCell id="q2HD8VKpV2fzyemEzLiY-119" value="hasKeywords" style="edgeLabel;html=1;align=center;verticalAlign=middle;resizable=0;points=[];" parent="q2HD8VKpV2fzyemEzLiY-116" vertex="1" connectable="0">
          <mxGeometry x="0.0057" y="-1" relative="1" as="geometry">
            <mxPoint x="6" as="offset" />
          </mxGeometry>
        </mxCell>
        <mxCell id="q2HD8VKpV2fzyemEzLiY-118" style="edgeStyle=orthogonalEdgeStyle;rounded=0;orthogonalLoop=1;jettySize=auto;html=1;exitX=0;exitY=1;exitDx=0;exitDy=0;entryX=1;entryY=0.5;entryDx=0;entryDy=0;" parent="1" source="q2HD8VKpV2fzyemEzLiY-1" target="q2HD8VKpV2fzyemEzLiY-117" edge="1">
          <mxGeometry relative="1" as="geometry">
            <Array as="points">
              <mxPoint x="230" y="330" />
              <mxPoint x="230" y="380" />
            </Array>
          </mxGeometry>
        </mxCell>
        <mxCell id="q2HD8VKpV2fzyemEzLiY-120" value="isAdult" style="edgeLabel;html=1;align=center;verticalAlign=middle;resizable=0;points=[];" parent="q2HD8VKpV2fzyemEzLiY-118" vertex="1" connectable="0">
          <mxGeometry x="0.4763" relative="1" as="geometry">
            <mxPoint y="11" as="offset" />
          </mxGeometry>
        </mxCell>
        <mxCell id="q2HD8VKpV2fzyemEzLiY-122" style="edgeStyle=orthogonalEdgeStyle;rounded=0;orthogonalLoop=1;jettySize=auto;html=1;exitX=1;exitY=1;exitDx=0;exitDy=0;entryX=0;entryY=0.5;entryDx=0;entryDy=0;" parent="1" source="q2HD8VKpV2fzyemEzLiY-1" target="q2HD8VKpV2fzyemEzLiY-121" edge="1">
          <mxGeometry relative="1" as="geometry">
            <Array as="points">
              <mxPoint x="440" y="370" />
            </Array>
          </mxGeometry>
        </mxCell>
        <mxCell id="q2HD8VKpV2fzyemEzLiY-123" value="hasBudget" style="edgeLabel;html=1;align=center;verticalAlign=middle;resizable=0;points=[];" parent="q2HD8VKpV2fzyemEzLiY-122" vertex="1" connectable="0">
          <mxGeometry x="0.1595" y="2" relative="1" as="geometry">
            <mxPoint x="7" y="2" as="offset" />
          </mxGeometry>
        </mxCell>
        <mxCell id="q2HD8VKpV2fzyemEzLiY-129" style="edgeStyle=orthogonalEdgeStyle;rounded=0;orthogonalLoop=1;jettySize=auto;html=1;exitX=0;exitY=0;exitDx=0;exitDy=0;entryX=1;entryY=0.5;entryDx=0;entryDy=0;strokeWidth=2;fillColor=#fff2cc;strokeColor=#d6b656;" parent="1" source="q2HD8VKpV2fzyemEzLiY-1" target="q2HD8VKpV2fzyemEzLiY-127" edge="1">
          <mxGeometry relative="1" as="geometry">
            <Array as="points">
              <mxPoint x="110" y="290" />
              <mxPoint x="110" y="160" />
            </Array>
          </mxGeometry>
        </mxCell>
        <mxCell id="q2HD8VKpV2fzyemEzLiY-130" style="edgeStyle=orthogonalEdgeStyle;rounded=0;orthogonalLoop=1;jettySize=auto;html=1;exitX=0;exitY=0;exitDx=0;exitDy=0;entryX=1;entryY=0.5;entryDx=0;entryDy=0;strokeWidth=2;fillColor=#fff2cc;strokeColor=#d6b656;" parent="1" source="q2HD8VKpV2fzyemEzLiY-1" target="q2HD8VKpV2fzyemEzLiY-126" edge="1">
          <mxGeometry relative="1" as="geometry">
            <Array as="points">
              <mxPoint x="110" y="290" />
              <mxPoint x="110" y="100" />
            </Array>
          </mxGeometry>
        </mxCell>
        <mxCell id="q2HD8VKpV2fzyemEzLiY-131" style="edgeStyle=orthogonalEdgeStyle;rounded=0;orthogonalLoop=1;jettySize=auto;html=1;exitX=0;exitY=0;exitDx=0;exitDy=0;entryX=1;entryY=0.5;entryDx=0;entryDy=0;strokeWidth=2;fillColor=#fff2cc;strokeColor=#d6b656;" parent="1" source="q2HD8VKpV2fzyemEzLiY-1" target="q2HD8VKpV2fzyemEzLiY-125" edge="1">
          <mxGeometry relative="1" as="geometry">
            <Array as="points">
              <mxPoint x="110" y="290" />
              <mxPoint x="110" y="60" />
            </Array>
          </mxGeometry>
        </mxCell>
        <mxCell id="q2HD8VKpV2fzyemEzLiY-132" style="edgeStyle=orthogonalEdgeStyle;rounded=0;orthogonalLoop=1;jettySize=auto;html=1;exitX=0;exitY=0;exitDx=0;exitDy=0;entryX=1;entryY=0.5;entryDx=0;entryDy=0;strokeWidth=2;fillColor=#fff2cc;strokeColor=#d6b656;" parent="1" source="q2HD8VKpV2fzyemEzLiY-1" target="q2HD8VKpV2fzyemEzLiY-124" edge="1">
          <mxGeometry relative="1" as="geometry">
            <Array as="points">
              <mxPoint x="110" y="290" />
              <mxPoint x="110" y="20" />
            </Array>
          </mxGeometry>
        </mxCell>
        <mxCell id="q2HD8VKpV2fzyemEzLiY-133" value="partOfCollections" style="edgeLabel;html=1;align=center;verticalAlign=middle;resizable=0;points=[];" parent="q2HD8VKpV2fzyemEzLiY-132" vertex="1" connectable="0">
          <mxGeometry x="0.2148" y="1" relative="1" as="geometry">
            <mxPoint y="1" as="offset" />
          </mxGeometry>
        </mxCell>
        <mxCell id="q2HD8VKpV2fzyemEzLiY-139" style="edgeStyle=orthogonalEdgeStyle;rounded=0;orthogonalLoop=1;jettySize=auto;html=1;exitX=0;exitY=0;exitDx=0;exitDy=0;entryX=1;entryY=0.5;entryDx=0;entryDy=0;fillColor=#fff2cc;strokeColor=#d6b656;strokeWidth=2;" parent="1" source="q2HD8VKpV2fzyemEzLiY-1" target="q2HD8VKpV2fzyemEzLiY-137" edge="1">
          <mxGeometry relative="1" as="geometry">
            <Array as="points">
              <mxPoint x="220" y="290" />
              <mxPoint x="220" y="160" />
            </Array>
          </mxGeometry>
        </mxCell>
        <mxCell id="q2HD8VKpV2fzyemEzLiY-140" style="edgeStyle=orthogonalEdgeStyle;rounded=0;orthogonalLoop=1;jettySize=auto;html=1;exitX=0;exitY=0;exitDx=0;exitDy=0;entryX=1;entryY=0.5;entryDx=0;entryDy=0;fillColor=#fff2cc;strokeColor=#d6b656;strokeWidth=2;" parent="1" source="q2HD8VKpV2fzyemEzLiY-1" target="q2HD8VKpV2fzyemEzLiY-136" edge="1">
          <mxGeometry relative="1" as="geometry">
            <Array as="points">
              <mxPoint x="220" y="290" />
              <mxPoint x="220" y="100" />
            </Array>
          </mxGeometry>
        </mxCell>
        <mxCell id="q2HD8VKpV2fzyemEzLiY-141" style="edgeStyle=orthogonalEdgeStyle;rounded=0;orthogonalLoop=1;jettySize=auto;html=1;exitX=0;exitY=0;exitDx=0;exitDy=0;entryX=1;entryY=0.5;entryDx=0;entryDy=0;fillColor=#fff2cc;strokeColor=#d6b656;strokeWidth=2;" parent="1" source="q2HD8VKpV2fzyemEzLiY-1" target="q2HD8VKpV2fzyemEzLiY-135" edge="1">
          <mxGeometry relative="1" as="geometry">
            <Array as="points">
              <mxPoint x="220" y="290" />
              <mxPoint x="220" y="60" />
            </Array>
          </mxGeometry>
        </mxCell>
        <mxCell id="q2HD8VKpV2fzyemEzLiY-142" style="edgeStyle=orthogonalEdgeStyle;rounded=0;orthogonalLoop=1;jettySize=auto;html=1;exitX=0;exitY=0;exitDx=0;exitDy=0;entryX=1;entryY=0.5;entryDx=0;entryDy=0;fillColor=#fff2cc;strokeColor=#d6b656;strokeWidth=2;" parent="1" source="q2HD8VKpV2fzyemEzLiY-1" target="q2HD8VKpV2fzyemEzLiY-134" edge="1">
          <mxGeometry relative="1" as="geometry">
            <Array as="points">
              <mxPoint x="220" y="290" />
              <mxPoint x="220" y="20" />
            </Array>
          </mxGeometry>
        </mxCell>
        <mxCell id="q2HD8VKpV2fzyemEzLiY-143" value="ofGenre" style="edgeLabel;html=1;align=center;verticalAlign=middle;resizable=0;points=[];" parent="q2HD8VKpV2fzyemEzLiY-142" vertex="1" connectable="0">
          <mxGeometry x="0.0983" relative="1" as="geometry">
            <mxPoint y="17" as="offset" />
          </mxGeometry>
        </mxCell>
        <mxCell id="q2HD8VKpV2fzyemEzLiY-147" style="edgeStyle=orthogonalEdgeStyle;rounded=0;orthogonalLoop=1;jettySize=auto;html=1;exitX=1;exitY=0;exitDx=0;exitDy=0;entryX=0;entryY=0.5;entryDx=0;entryDy=0;fillColor=#fff2cc;strokeColor=#d6b656;strokeWidth=2;" parent="1" source="q2HD8VKpV2fzyemEzLiY-1" target="q2HD8VKpV2fzyemEzLiY-144" edge="1">
          <mxGeometry relative="1" as="geometry">
            <Array as="points">
              <mxPoint x="550" y="290" />
              <mxPoint x="550" y="125" />
            </Array>
          </mxGeometry>
        </mxCell>
        <mxCell id="q2HD8VKpV2fzyemEzLiY-150" value="hasOriginalLanguage" style="edgeLabel;html=1;align=center;verticalAlign=middle;resizable=0;points=[];" parent="q2HD8VKpV2fzyemEzLiY-147" vertex="1" connectable="0">
          <mxGeometry x="0.6725" relative="1" as="geometry">
            <mxPoint x="-3" y="-1" as="offset" />
          </mxGeometry>
        </mxCell>
        <mxCell id="q2HD8VKpV2fzyemEzLiY-148" style="edgeStyle=orthogonalEdgeStyle;rounded=0;orthogonalLoop=1;jettySize=auto;html=1;exitX=1;exitY=0;exitDx=0;exitDy=0;entryX=0;entryY=0.5;entryDx=0;entryDy=0;" parent="1" source="q2HD8VKpV2fzyemEzLiY-1" target="q2HD8VKpV2fzyemEzLiY-145" edge="1">
          <mxGeometry relative="1" as="geometry">
            <Array as="points">
              <mxPoint x="550" y="290" />
              <mxPoint x="550" y="175" />
            </Array>
          </mxGeometry>
        </mxCell>
        <mxCell id="q2HD8VKpV2fzyemEzLiY-151" value="hasOriginalTitle" style="edgeLabel;html=1;align=center;verticalAlign=middle;resizable=0;points=[];" parent="q2HD8VKpV2fzyemEzLiY-148" vertex="1" connectable="0">
          <mxGeometry x="0.5911" y="1" relative="1" as="geometry">
            <mxPoint x="7" y="1" as="offset" />
          </mxGeometry>
        </mxCell>
        <mxCell id="q2HD8VKpV2fzyemEzLiY-149" style="edgeStyle=orthogonalEdgeStyle;rounded=0;orthogonalLoop=1;jettySize=auto;html=1;exitX=1;exitY=0;exitDx=0;exitDy=0;entryX=0;entryY=0.5;entryDx=0;entryDy=0;fillColor=#fff2cc;strokeColor=#d6b656;strokeWidth=2;" parent="1" source="q2HD8VKpV2fzyemEzLiY-1" target="q2HD8VKpV2fzyemEzLiY-146" edge="1">
          <mxGeometry relative="1" as="geometry">
            <Array as="points">
              <mxPoint x="550" y="290" />
              <mxPoint x="550" y="225" />
            </Array>
          </mxGeometry>
        </mxCell>
        <mxCell id="q2HD8VKpV2fzyemEzLiY-152" value="hasOverview" style="edgeLabel;html=1;align=center;verticalAlign=middle;resizable=0;points=[];" parent="q2HD8VKpV2fzyemEzLiY-149" vertex="1" connectable="0">
          <mxGeometry x="0.6754" y="-1" relative="1" as="geometry">
            <mxPoint x="-19" y="-2" as="offset" />
          </mxGeometry>
        </mxCell>
        <mxCell id="q2HD8VKpV2fzyemEzLiY-159" style="edgeStyle=orthogonalEdgeStyle;rounded=0;orthogonalLoop=1;jettySize=auto;html=1;exitX=0;exitY=0;exitDx=0;exitDy=0;entryX=1;entryY=0.5;entryDx=0;entryDy=0;" parent="1" source="q2HD8VKpV2fzyemEzLiY-1" target="q2HD8VKpV2fzyemEzLiY-157" edge="1">
          <mxGeometry relative="1" as="geometry" />
        </mxCell>
        <mxCell id="q2HD8VKpV2fzyemEzLiY-166" style="edgeStyle=orthogonalEdgeStyle;rounded=0;orthogonalLoop=1;jettySize=auto;html=1;exitX=0.5;exitY=0;exitDx=0;exitDy=0;" parent="1" source="q2HD8VKpV2fzyemEzLiY-1" target="q2HD8VKpV2fzyemEzLiY-165" edge="1">
          <mxGeometry relative="1" as="geometry" />
        </mxCell>
        <mxCell id="q2HD8VKpV2fzyemEzLiY-167" value="hasAverageRating" style="edgeLabel;html=1;align=center;verticalAlign=middle;resizable=0;points=[];" parent="q2HD8VKpV2fzyemEzLiY-166" vertex="1" connectable="0">
          <mxGeometry x="0.3493" y="-1" relative="1" as="geometry">
            <mxPoint y="9" as="offset" />
          </mxGeometry>
        </mxCell>
        <mxCell id="tpKejdH_pxKhNe_Vss-R-3" style="edgeStyle=orthogonalEdgeStyle;rounded=0;orthogonalLoop=1;jettySize=auto;html=1;exitX=1;exitY=0;exitDx=0;exitDy=0;entryX=0.5;entryY=1;entryDx=0;entryDy=0;" edge="1" parent="1" source="q2HD8VKpV2fzyemEzLiY-1" target="tpKejdH_pxKhNe_Vss-R-2">
          <mxGeometry relative="1" as="geometry">
            <Array as="points">
              <mxPoint x="500" y="290" />
            </Array>
          </mxGeometry>
        </mxCell>
        <mxCell id="q2HD8VKpV2fzyemEzLiY-1" value="MovieId" style="rhombus;whiteSpace=wrap;html=1;" parent="1" vertex="1">
          <mxGeometry x="380" y="270" width="80" height="80" as="geometry" />
        </mxCell>
        <mxCell id="q2HD8VKpV2fzyemEzLiY-19" value="Director1" style="rounded=1;whiteSpace=wrap;html=1;fillColor=#fff2cc;strokeColor=#d6b656;" parent="1" vertex="1">
          <mxGeometry x="80" y="520" width="60" height="20" as="geometry" />
        </mxCell>
        <mxCell id="q2HD8VKpV2fzyemEzLiY-20" value="Director2" style="rounded=1;whiteSpace=wrap;html=1;fillColor=#fff2cc;strokeColor=#d6b656;" parent="1" vertex="1">
          <mxGeometry x="80" y="560" width="60" height="20" as="geometry" />
        </mxCell>
        <mxCell id="q2HD8VKpV2fzyemEzLiY-21" value="Director3" style="rounded=1;whiteSpace=wrap;html=1;fillColor=#fff2cc;strokeColor=#d6b656;" parent="1" vertex="1">
          <mxGeometry x="80" y="600" width="60" height="20" as="geometry" />
        </mxCell>
        <mxCell id="q2HD8VKpV2fzyemEzLiY-22" value="DirectorN" style="rounded=1;whiteSpace=wrap;html=1;fillColor=#fff2cc;strokeColor=#d6b656;" parent="1" vertex="1">
          <mxGeometry x="80" y="660" width="60" height="20" as="geometry" />
        </mxCell>
        <mxCell id="q2HD8VKpV2fzyemEzLiY-24" value="" style="endArrow=none;dashed=1;html=1;rounded=1;entryX=0.5;entryY=1;entryDx=0;entryDy=0;exitX=0.5;exitY=0;exitDx=0;exitDy=0;strokeWidth=1;targetPerimeterSpacing=6;sourcePerimeterSpacing=6;jumpStyle=gap;strokeColor=#000000;endSize=3;startSize=3;jumpSize=10;fillColor=#fff2cc;" parent="1" source="q2HD8VKpV2fzyemEzLiY-22" target="q2HD8VKpV2fzyemEzLiY-21" edge="1">
          <mxGeometry width="50" height="50" relative="1" as="geometry">
            <mxPoint x="180" y="640" as="sourcePoint" />
            <mxPoint x="180" y="600" as="targetPoint" />
          </mxGeometry>
        </mxCell>
        <mxCell id="q2HD8VKpV2fzyemEzLiY-25" value="Writer1" style="rounded=1;whiteSpace=wrap;html=1;fillColor=#fff2cc;strokeColor=#d6b656;" parent="1" vertex="1">
          <mxGeometry x="235" y="520" width="60" height="20" as="geometry" />
        </mxCell>
        <mxCell id="q2HD8VKpV2fzyemEzLiY-26" value="Writer2" style="rounded=1;whiteSpace=wrap;html=1;fillColor=#fff2cc;strokeColor=#d6b656;" parent="1" vertex="1">
          <mxGeometry x="235" y="560" width="60" height="20" as="geometry" />
        </mxCell>
        <mxCell id="q2HD8VKpV2fzyemEzLiY-27" value="Writer3" style="rounded=1;whiteSpace=wrap;html=1;fillColor=#fff2cc;strokeColor=#d6b656;" parent="1" vertex="1">
          <mxGeometry x="235" y="600" width="60" height="20" as="geometry" />
        </mxCell>
        <mxCell id="q2HD8VKpV2fzyemEzLiY-28" value="WriterN" style="rounded=1;whiteSpace=wrap;html=1;fillColor=#fff2cc;strokeColor=#d6b656;" parent="1" vertex="1">
          <mxGeometry x="235" y="660" width="60" height="20" as="geometry" />
        </mxCell>
        <mxCell id="q2HD8VKpV2fzyemEzLiY-29" value="" style="endArrow=none;dashed=1;html=1;rounded=1;entryX=0.5;entryY=1;entryDx=0;entryDy=0;exitX=0.5;exitY=0;exitDx=0;exitDy=0;strokeWidth=1;targetPerimeterSpacing=6;sourcePerimeterSpacing=6;jumpStyle=gap;strokeColor=#000000;endSize=3;startSize=3;jumpSize=10;fillColor=#fff2cc;" parent="1" source="q2HD8VKpV2fzyemEzLiY-28" target="q2HD8VKpV2fzyemEzLiY-27" edge="1">
          <mxGeometry width="50" height="50" relative="1" as="geometry">
            <mxPoint x="335" y="640" as="sourcePoint" />
            <mxPoint x="335" y="600" as="targetPoint" />
          </mxGeometry>
        </mxCell>
        <mxCell id="q2HD8VKpV2fzyemEzLiY-30" value="Producer1" style="rounded=1;whiteSpace=wrap;html=1;fillColor=#fff2cc;strokeColor=#d6b656;" parent="1" vertex="1">
          <mxGeometry x="540" y="520" width="60" height="20" as="geometry" />
        </mxCell>
        <mxCell id="q2HD8VKpV2fzyemEzLiY-31" value="Producer2" style="rounded=1;whiteSpace=wrap;html=1;fillColor=#fff2cc;strokeColor=#d6b656;" parent="1" vertex="1">
          <mxGeometry x="540" y="560" width="60" height="20" as="geometry" />
        </mxCell>
        <mxCell id="q2HD8VKpV2fzyemEzLiY-32" value="Producer3" style="rounded=1;whiteSpace=wrap;html=1;fillColor=#fff2cc;strokeColor=#d6b656;" parent="1" vertex="1">
          <mxGeometry x="540" y="600" width="60" height="20" as="geometry" />
        </mxCell>
        <mxCell id="q2HD8VKpV2fzyemEzLiY-33" value="ProducerN" style="rounded=1;whiteSpace=wrap;html=1;fillColor=#fff2cc;strokeColor=#d6b656;" parent="1" vertex="1">
          <mxGeometry x="540" y="660" width="60" height="20" as="geometry" />
        </mxCell>
        <mxCell id="q2HD8VKpV2fzyemEzLiY-34" value="" style="endArrow=none;dashed=1;html=1;rounded=1;entryX=0.5;entryY=1;entryDx=0;entryDy=0;exitX=0.5;exitY=0;exitDx=0;exitDy=0;strokeWidth=1;targetPerimeterSpacing=6;sourcePerimeterSpacing=6;jumpStyle=gap;strokeColor=#000000;endSize=3;startSize=3;jumpSize=10;fillColor=#fff2cc;" parent="1" source="q2HD8VKpV2fzyemEzLiY-33" target="q2HD8VKpV2fzyemEzLiY-32" edge="1">
          <mxGeometry width="50" height="50" relative="1" as="geometry">
            <mxPoint x="640" y="640" as="sourcePoint" />
            <mxPoint x="640" y="600" as="targetPoint" />
          </mxGeometry>
        </mxCell>
        <mxCell id="q2HD8VKpV2fzyemEzLiY-35" value="SupportingArtist1" style="rounded=1;whiteSpace=wrap;html=1;fillColor=#fff2cc;strokeColor=#d6b656;" parent="1" vertex="1">
          <mxGeometry x="690" y="520" width="107.5" height="20" as="geometry" />
        </mxCell>
        <mxCell id="q2HD8VKpV2fzyemEzLiY-39" value="" style="endArrow=none;dashed=1;html=1;rounded=1;entryX=0.5;entryY=1;entryDx=0;entryDy=0;exitX=0.5;exitY=0;exitDx=0;exitDy=0;strokeWidth=1;targetPerimeterSpacing=6;sourcePerimeterSpacing=6;jumpStyle=gap;strokeColor=#000000;endSize=3;startSize=3;jumpSize=10;fillColor=#fff2cc;" parent="1" target="q2HD8VKpV2fzyemEzLiY-41" edge="1">
          <mxGeometry width="50" height="50" relative="1" as="geometry">
            <mxPoint x="743.75" y="660" as="sourcePoint" />
            <mxPoint x="720" y="620" as="targetPoint" />
          </mxGeometry>
        </mxCell>
        <mxCell id="q2HD8VKpV2fzyemEzLiY-40" value="SupportingArtist2" style="rounded=1;whiteSpace=wrap;html=1;fillColor=#fff2cc;strokeColor=#d6b656;" parent="1" vertex="1">
          <mxGeometry x="690" y="560" width="107.5" height="20" as="geometry" />
        </mxCell>
        <mxCell id="q2HD8VKpV2fzyemEzLiY-41" value="SupportingArtist3" style="rounded=1;whiteSpace=wrap;html=1;fillColor=#fff2cc;strokeColor=#d6b656;" parent="1" vertex="1">
          <mxGeometry x="690" y="600" width="107.5" height="20" as="geometry" />
        </mxCell>
        <mxCell id="q2HD8VKpV2fzyemEzLiY-42" value="SupportingArtistN" style="rounded=1;whiteSpace=wrap;html=1;fillColor=#fff2cc;strokeColor=#d6b656;" parent="1" vertex="1">
          <mxGeometry x="690" y="660" width="107.5" height="20" as="geometry" />
        </mxCell>
        <mxCell id="q2HD8VKpV2fzyemEzLiY-43" value="Editor1" style="rounded=1;whiteSpace=wrap;html=1;fillColor=#fff2cc;strokeColor=#d6b656;" parent="1" vertex="1">
          <mxGeometry x="120" y="720" width="60" height="20" as="geometry" />
        </mxCell>
        <mxCell id="q2HD8VKpV2fzyemEzLiY-44" value="Editor2" style="rounded=1;whiteSpace=wrap;html=1;fillColor=#fff2cc;strokeColor=#d6b656;" parent="1" vertex="1">
          <mxGeometry x="120" y="760" width="60" height="20" as="geometry" />
        </mxCell>
        <mxCell id="q2HD8VKpV2fzyemEzLiY-45" value="Editor3" style="rounded=1;whiteSpace=wrap;html=1;fillColor=#fff2cc;strokeColor=#d6b656;" parent="1" vertex="1">
          <mxGeometry x="120" y="800" width="60" height="20" as="geometry" />
        </mxCell>
        <mxCell id="q2HD8VKpV2fzyemEzLiY-46" value="EditorN" style="rounded=1;whiteSpace=wrap;html=1;fillColor=#fff2cc;strokeColor=#d6b656;" parent="1" vertex="1">
          <mxGeometry x="120" y="860" width="60" height="20" as="geometry" />
        </mxCell>
        <mxCell id="q2HD8VKpV2fzyemEzLiY-47" value="" style="endArrow=none;dashed=1;html=1;rounded=1;entryX=0.5;entryY=1;entryDx=0;entryDy=0;exitX=0.5;exitY=0;exitDx=0;exitDy=0;strokeWidth=1;targetPerimeterSpacing=6;sourcePerimeterSpacing=6;jumpStyle=gap;strokeColor=default;endSize=3;startSize=3;jumpSize=10;" parent="1" source="q2HD8VKpV2fzyemEzLiY-46" target="q2HD8VKpV2fzyemEzLiY-45" edge="1">
          <mxGeometry width="50" height="50" relative="1" as="geometry">
            <mxPoint x="220" y="840" as="sourcePoint" />
            <mxPoint x="220" y="800" as="targetPoint" />
          </mxGeometry>
        </mxCell>
        <mxCell id="q2HD8VKpV2fzyemEzLiY-48" value="SoundArtist1" style="rounded=1;whiteSpace=wrap;html=1;fillColor=#fff2cc;strokeColor=#d6b656;" parent="1" vertex="1">
          <mxGeometry x="235" y="720" width="75" height="20" as="geometry" />
        </mxCell>
        <mxCell id="q2HD8VKpV2fzyemEzLiY-49" value="SoundArtist2" style="rounded=1;whiteSpace=wrap;html=1;fillColor=#fff2cc;strokeColor=#d6b656;" parent="1" vertex="1">
          <mxGeometry x="235" y="760" width="75" height="20" as="geometry" />
        </mxCell>
        <mxCell id="q2HD8VKpV2fzyemEzLiY-50" value="SoundArtist3" style="rounded=1;whiteSpace=wrap;html=1;fillColor=#fff2cc;strokeColor=#d6b656;" parent="1" vertex="1">
          <mxGeometry x="235" y="800" width="75" height="20" as="geometry" />
        </mxCell>
        <mxCell id="q2HD8VKpV2fzyemEzLiY-51" value="SoundArtistN" style="rounded=1;whiteSpace=wrap;html=1;fillColor=#fff2cc;strokeColor=#d6b656;" parent="1" vertex="1">
          <mxGeometry x="235" y="860" width="75" height="20" as="geometry" />
        </mxCell>
        <mxCell id="q2HD8VKpV2fzyemEzLiY-52" value="" style="endArrow=none;dashed=1;html=1;rounded=1;entryX=0.5;entryY=1;entryDx=0;entryDy=0;exitX=0.5;exitY=0;exitDx=0;exitDy=0;strokeWidth=1;targetPerimeterSpacing=6;sourcePerimeterSpacing=6;jumpStyle=gap;strokeColor=default;endSize=3;startSize=3;jumpSize=10;" parent="1" source="q2HD8VKpV2fzyemEzLiY-51" target="q2HD8VKpV2fzyemEzLiY-50" edge="1">
          <mxGeometry width="50" height="50" relative="1" as="geometry">
            <mxPoint x="350" y="840" as="sourcePoint" />
            <mxPoint x="350" y="800" as="targetPoint" />
          </mxGeometry>
        </mxCell>
        <mxCell id="q2HD8VKpV2fzyemEzLiY-53" value="LightingTech1" style="rounded=1;whiteSpace=wrap;html=1;fillColor=#fff2cc;strokeColor=#d6b656;" parent="1" vertex="1">
          <mxGeometry x="522.5" y="700" width="77.5" height="20" as="geometry" />
        </mxCell>
        <mxCell id="q2HD8VKpV2fzyemEzLiY-54" value="LightingTech2" style="rounded=1;whiteSpace=wrap;html=1;fillColor=#fff2cc;strokeColor=#d6b656;" parent="1" vertex="1">
          <mxGeometry x="522.5" y="740" width="77.5" height="20" as="geometry" />
        </mxCell>
        <mxCell id="q2HD8VKpV2fzyemEzLiY-55" value="LightingTech3" style="rounded=1;whiteSpace=wrap;html=1;fillColor=#fff2cc;strokeColor=#d6b656;" parent="1" vertex="1">
          <mxGeometry x="522.5" y="780" width="77.5" height="20" as="geometry" />
        </mxCell>
        <mxCell id="q2HD8VKpV2fzyemEzLiY-56" value="LightingTechN" style="rounded=1;whiteSpace=wrap;html=1;fillColor=#fff2cc;strokeColor=#d6b656;" parent="1" vertex="1">
          <mxGeometry x="522.5" y="840" width="77.5" height="20" as="geometry" />
        </mxCell>
        <mxCell id="q2HD8VKpV2fzyemEzLiY-57" value="" style="endArrow=none;dashed=1;html=1;rounded=1;entryX=0.5;entryY=1;entryDx=0;entryDy=0;exitX=0.5;exitY=0;exitDx=0;exitDy=0;strokeWidth=1;targetPerimeterSpacing=6;sourcePerimeterSpacing=6;jumpStyle=gap;strokeColor=default;endSize=3;startSize=3;jumpSize=10;" parent="1" source="q2HD8VKpV2fzyemEzLiY-56" target="q2HD8VKpV2fzyemEzLiY-55" edge="1">
          <mxGeometry width="50" height="50" relative="1" as="geometry">
            <mxPoint x="640" y="820" as="sourcePoint" />
            <mxPoint x="640" y="780" as="targetPoint" />
          </mxGeometry>
        </mxCell>
        <mxCell id="q2HD8VKpV2fzyemEzLiY-58" value="VisualEffectsPerson1" style="rounded=1;whiteSpace=wrap;html=1;fillColor=#fff2cc;strokeColor=#d6b656;" parent="1" vertex="1">
          <mxGeometry x="655" y="700" width="117.5" height="20" as="geometry" />
        </mxCell>
        <mxCell id="q2HD8VKpV2fzyemEzLiY-59" value="" style="endArrow=none;dashed=1;html=1;rounded=1;entryX=0.5;entryY=1;entryDx=0;entryDy=0;exitX=0.5;exitY=0;exitDx=0;exitDy=0;strokeWidth=1;targetPerimeterSpacing=6;sourcePerimeterSpacing=6;jumpStyle=gap;strokeColor=default;endSize=3;startSize=3;jumpSize=10;" parent="1" source="q2HD8VKpV2fzyemEzLiY-62" target="q2HD8VKpV2fzyemEzLiY-61" edge="1">
          <mxGeometry width="50" height="50" relative="1" as="geometry">
            <mxPoint x="695" y="840" as="sourcePoint" />
            <mxPoint x="695" y="800" as="targetPoint" />
          </mxGeometry>
        </mxCell>
        <mxCell id="q2HD8VKpV2fzyemEzLiY-60" value="VisualEffectsPerson2" style="rounded=1;whiteSpace=wrap;html=1;fillColor=#fff2cc;strokeColor=#d6b656;" parent="1" vertex="1">
          <mxGeometry x="655" y="740" width="117.5" height="20" as="geometry" />
        </mxCell>
        <mxCell id="q2HD8VKpV2fzyemEzLiY-61" value="VisualEffectsPerson3" style="rounded=1;whiteSpace=wrap;html=1;fillColor=#fff2cc;strokeColor=#d6b656;" parent="1" vertex="1">
          <mxGeometry x="655" y="780" width="117.5" height="20" as="geometry" />
        </mxCell>
        <mxCell id="q2HD8VKpV2fzyemEzLiY-62" value="VisualEffectsPersonN" style="rounded=1;whiteSpace=wrap;html=1;fillColor=#fff2cc;strokeColor=#d6b656;" parent="1" vertex="1">
          <mxGeometry x="655" y="840" width="117.5" height="20" as="geometry" />
        </mxCell>
        <mxCell id="q2HD8VKpV2fzyemEzLiY-108" value="KeyWord1" style="rounded=1;whiteSpace=wrap;html=1;fillColor=#fff2cc;strokeColor=#d6b656;" parent="1" vertex="1">
          <mxGeometry x="10" y="320" width="60" height="20" as="geometry" />
        </mxCell>
        <mxCell id="q2HD8VKpV2fzyemEzLiY-109" value="KeyWord2" style="rounded=1;whiteSpace=wrap;html=1;fillColor=#fff2cc;strokeColor=#d6b656;" parent="1" vertex="1">
          <mxGeometry x="10" y="360" width="60" height="20" as="geometry" />
        </mxCell>
        <mxCell id="q2HD8VKpV2fzyemEzLiY-110" value="KeyWord3" style="rounded=1;whiteSpace=wrap;html=1;fillColor=#fff2cc;strokeColor=#d6b656;" parent="1" vertex="1">
          <mxGeometry x="10" y="400" width="60" height="20" as="geometry" />
        </mxCell>
        <mxCell id="q2HD8VKpV2fzyemEzLiY-111" value="KeyWordN" style="rounded=1;whiteSpace=wrap;html=1;fillColor=#fff2cc;strokeColor=#d6b656;" parent="1" vertex="1">
          <mxGeometry x="10" y="460" width="60" height="20" as="geometry" />
        </mxCell>
        <mxCell id="q2HD8VKpV2fzyemEzLiY-112" value="" style="endArrow=none;dashed=1;html=1;rounded=1;entryX=0.5;entryY=1;entryDx=0;entryDy=0;exitX=0.5;exitY=0;exitDx=0;exitDy=0;strokeWidth=1;targetPerimeterSpacing=6;sourcePerimeterSpacing=6;jumpStyle=gap;strokeColor=#d6b656;endSize=3;startSize=3;jumpSize=10;fillColor=#fff2cc;" parent="1" source="q2HD8VKpV2fzyemEzLiY-111" target="q2HD8VKpV2fzyemEzLiY-110" edge="1">
          <mxGeometry width="50" height="50" relative="1" as="geometry">
            <mxPoint x="110" y="440" as="sourcePoint" />
            <mxPoint x="110" y="400" as="targetPoint" />
          </mxGeometry>
        </mxCell>
        <mxCell id="q2HD8VKpV2fzyemEzLiY-117" value="True/False" style="rounded=1;whiteSpace=wrap;html=1;" parent="1" vertex="1">
          <mxGeometry x="130" y="370" width="70" height="20" as="geometry" />
        </mxCell>
        <mxCell id="q2HD8VKpV2fzyemEzLiY-121" value="Value" style="rounded=1;whiteSpace=wrap;html=1;" parent="1" vertex="1">
          <mxGeometry x="545" y="360" width="50" height="20" as="geometry" />
        </mxCell>
        <mxCell id="q2HD8VKpV2fzyemEzLiY-124" value="Collection1" style="rounded=1;whiteSpace=wrap;html=1;fillColor=#fff2cc;strokeColor=#d6b656;" parent="1" vertex="1">
          <mxGeometry x="10" y="10" width="70" height="20" as="geometry" />
        </mxCell>
        <mxCell id="q2HD8VKpV2fzyemEzLiY-125" value="Collection2" style="rounded=1;whiteSpace=wrap;html=1;fillColor=#fff2cc;strokeColor=#d6b656;" parent="1" vertex="1">
          <mxGeometry x="10" y="50" width="70" height="20" as="geometry" />
        </mxCell>
        <mxCell id="q2HD8VKpV2fzyemEzLiY-126" value="Collection3" style="rounded=1;whiteSpace=wrap;html=1;fillColor=#fff2cc;strokeColor=#d6b656;" parent="1" vertex="1">
          <mxGeometry x="10" y="90" width="70" height="20" as="geometry" />
        </mxCell>
        <mxCell id="q2HD8VKpV2fzyemEzLiY-127" value="CollectionN" style="rounded=1;whiteSpace=wrap;html=1;fillColor=#fff2cc;strokeColor=#d6b656;" parent="1" vertex="1">
          <mxGeometry x="10" y="150" width="70" height="20" as="geometry" />
        </mxCell>
        <mxCell id="q2HD8VKpV2fzyemEzLiY-128" value="" style="endArrow=none;dashed=1;html=1;rounded=1;entryX=0.5;entryY=1;entryDx=0;entryDy=0;exitX=0.5;exitY=0;exitDx=0;exitDy=0;strokeWidth=1;targetPerimeterSpacing=6;sourcePerimeterSpacing=6;jumpStyle=gap;strokeColor=#000000;endSize=3;startSize=3;jumpSize=10;fillColor=#fff2cc;" parent="1" source="q2HD8VKpV2fzyemEzLiY-127" target="q2HD8VKpV2fzyemEzLiY-126" edge="1">
          <mxGeometry width="50" height="50" relative="1" as="geometry">
            <mxPoint x="110" y="130" as="sourcePoint" />
            <mxPoint x="110" y="90" as="targetPoint" />
          </mxGeometry>
        </mxCell>
        <mxCell id="q2HD8VKpV2fzyemEzLiY-134" value="Genre1" style="rounded=1;whiteSpace=wrap;html=1;fillColor=#fff2cc;strokeColor=#d6b656;" parent="1" vertex="1">
          <mxGeometry x="130" y="10" width="60" height="20" as="geometry" />
        </mxCell>
        <mxCell id="q2HD8VKpV2fzyemEzLiY-135" value="Genre2" style="rounded=1;whiteSpace=wrap;html=1;fillColor=#fff2cc;strokeColor=#d6b656;" parent="1" vertex="1">
          <mxGeometry x="130" y="50" width="60" height="20" as="geometry" />
        </mxCell>
        <mxCell id="q2HD8VKpV2fzyemEzLiY-136" value="Genre3" style="rounded=1;whiteSpace=wrap;html=1;fillColor=#fff2cc;strokeColor=#d6b656;" parent="1" vertex="1">
          <mxGeometry x="130" y="90" width="60" height="20" as="geometry" />
        </mxCell>
        <mxCell id="q2HD8VKpV2fzyemEzLiY-137" value="GenreN" style="rounded=1;whiteSpace=wrap;html=1;fillColor=#fff2cc;strokeColor=#d6b656;" parent="1" vertex="1">
          <mxGeometry x="130" y="150" width="60" height="20" as="geometry" />
        </mxCell>
        <mxCell id="q2HD8VKpV2fzyemEzLiY-138" value="" style="endArrow=none;dashed=1;html=1;rounded=1;entryX=0.5;entryY=1;entryDx=0;entryDy=0;exitX=0.5;exitY=0;exitDx=0;exitDy=0;strokeWidth=1;targetPerimeterSpacing=6;sourcePerimeterSpacing=6;jumpStyle=gap;strokeColor=#000000;endSize=3;startSize=3;jumpSize=10;fillColor=#fff2cc;" parent="1" source="q2HD8VKpV2fzyemEzLiY-137" target="q2HD8VKpV2fzyemEzLiY-136" edge="1">
          <mxGeometry width="50" height="50" relative="1" as="geometry">
            <mxPoint x="230" y="130" as="sourcePoint" />
            <mxPoint x="230" y="90" as="targetPoint" />
          </mxGeometry>
        </mxCell>
        <mxCell id="q2HD8VKpV2fzyemEzLiY-165" value="Value" style="rounded=1;whiteSpace=wrap;html=1;" parent="1" vertex="1">
          <mxGeometry x="395" y="130" width="50" height="20" as="geometry" />
        </mxCell>
        <mxCell id="q2HD8VKpV2fzyemEzLiY-168" value="RDF Data Entity Structure" style="swimlane;whiteSpace=wrap;html=1;strokeWidth=2;fillColor=#dae8fc;strokeColor=#6c8ebf;glass=1;rounded=1;shadow=0;" parent="1" vertex="1">
          <mxGeometry x="-10" y="-20" width="830" height="920" as="geometry" />
        </mxCell>
        <mxCell id="q2HD8VKpV2fzyemEzLiY-18" value="actedBy" style="edgeLabel;html=1;align=center;verticalAlign=middle;resizable=0;points=[];" parent="q2HD8VKpV2fzyemEzLiY-168" vertex="1" connectable="0">
          <mxGeometry x="659.9988679245283" y="329.99717235348265" as="geometry" />
        </mxCell>
        <mxCell id="q2HD8VKpV2fzyemEzLiY-2" value="Actor1" style="rounded=1;whiteSpace=wrap;html=1;fillColor=#fff2cc;strokeColor=#d6b656;" parent="q2HD8VKpV2fzyemEzLiY-168" vertex="1">
          <mxGeometry x="737.5" y="280" width="70" height="20" as="geometry" />
        </mxCell>
        <mxCell id="q2HD8VKpV2fzyemEzLiY-3" value="Actor2" style="rounded=1;whiteSpace=wrap;html=1;fillColor=#fff2cc;strokeColor=#d6b656;" parent="q2HD8VKpV2fzyemEzLiY-168" vertex="1">
          <mxGeometry x="737.5" y="320" width="70" height="20" as="geometry" />
        </mxCell>
        <mxCell id="q2HD8VKpV2fzyemEzLiY-4" value="Actor3" style="rounded=1;whiteSpace=wrap;html=1;fillColor=#fff2cc;strokeColor=#d6b656;" parent="q2HD8VKpV2fzyemEzLiY-168" vertex="1">
          <mxGeometry x="737.5" y="360" width="70" height="20" as="geometry" />
        </mxCell>
        <mxCell id="q2HD8VKpV2fzyemEzLiY-5" value="ActorN" style="rounded=1;whiteSpace=wrap;html=1;fillColor=#fff2cc;strokeColor=#d6b656;" parent="q2HD8VKpV2fzyemEzLiY-168" vertex="1">
          <mxGeometry x="737.5" y="420" width="70" height="20" as="geometry" />
        </mxCell>
        <mxCell id="q2HD8VKpV2fzyemEzLiY-6" value="" style="endArrow=none;dashed=1;html=1;rounded=1;entryX=0.5;entryY=1;entryDx=0;entryDy=0;exitX=0.5;exitY=0;exitDx=0;exitDy=0;strokeWidth=1;targetPerimeterSpacing=6;sourcePerimeterSpacing=6;jumpStyle=gap;strokeColor=#000000;endSize=3;startSize=3;jumpSize=10;fillColor=#fff2cc;" parent="q2HD8VKpV2fzyemEzLiY-168" source="q2HD8VKpV2fzyemEzLiY-5" target="q2HD8VKpV2fzyemEzLiY-4" edge="1">
          <mxGeometry width="50" height="50" relative="1" as="geometry">
            <mxPoint x="537.5" y="350" as="sourcePoint" />
            <mxPoint x="587.5" y="300" as="targetPoint" />
          </mxGeometry>
        </mxCell>
        <mxCell id="q2HD8VKpV2fzyemEzLiY-144" value="Language" style="rounded=1;whiteSpace=wrap;html=1;fillColor=#fff2cc;strokeColor=#d6b656;" parent="q2HD8VKpV2fzyemEzLiY-168" vertex="1">
          <mxGeometry x="737.5" y="130" width="70" height="30" as="geometry" />
        </mxCell>
        <mxCell id="q2HD8VKpV2fzyemEzLiY-145" value="Title" style="rounded=1;whiteSpace=wrap;html=1;" parent="q2HD8VKpV2fzyemEzLiY-168" vertex="1">
          <mxGeometry x="737.5" y="180" width="70" height="30" as="geometry" />
        </mxCell>
        <mxCell id="q2HD8VKpV2fzyemEzLiY-146" value="Overview" style="rounded=1;whiteSpace=wrap;html=1;fillColor=#fff2cc;strokeColor=#d6b656;" parent="q2HD8VKpV2fzyemEzLiY-168" vertex="1">
          <mxGeometry x="737.5" y="230" width="70" height="30" as="geometry" />
        </mxCell>
        <mxCell id="q2HD8VKpV2fzyemEzLiY-170" value="" style="endArrow=none;html=1;rounded=0;fillColor=#fff2cc;strokeColor=#d6b656;strokeWidth=2;" parent="q2HD8VKpV2fzyemEzLiY-168" edge="1">
          <mxGeometry width="50" height="50" relative="1" as="geometry">
            <mxPoint x="610" y="80" as="sourcePoint" />
            <mxPoint x="650" y="80" as="targetPoint" />
          </mxGeometry>
        </mxCell>
        <mxCell id="q2HD8VKpV2fzyemEzLiY-171" value="Mandatory (Exists)" style="text;html=1;align=center;verticalAlign=middle;resizable=0;points=[];autosize=1;strokeColor=none;fillColor=none;" parent="q2HD8VKpV2fzyemEzLiY-168" vertex="1">
          <mxGeometry x="650" y="38" width="120" height="30" as="geometry" />
        </mxCell>
        <mxCell id="q2HD8VKpV2fzyemEzLiY-172" value="Optional (May Not Exist)" style="text;html=1;align=center;verticalAlign=middle;resizable=0;points=[];autosize=1;strokeColor=none;fillColor=none;" parent="q2HD8VKpV2fzyemEzLiY-168" vertex="1">
          <mxGeometry x="650" y="68" width="150" height="30" as="geometry" />
        </mxCell>
        <mxCell id="tpKejdH_pxKhNe_Vss-R-1" value="hasReleaseYear" style="edgeLabel;html=1;align=center;verticalAlign=middle;resizable=0;points=[];" vertex="1" connectable="0" parent="q2HD8VKpV2fzyemEzLiY-168">
          <mxGeometry x="360" y="239.9973684210525" as="geometry" />
        </mxCell>
        <mxCell id="q2HD8VKpV2fzyemEzLiY-157" value="Release Year" style="rounded=1;whiteSpace=wrap;html=1;" parent="q2HD8VKpV2fzyemEzLiY-168" vertex="1">
          <mxGeometry x="250" y="110" width="80" height="20" as="geometry" />
        </mxCell>
        <mxCell id="tpKejdH_pxKhNe_Vss-R-2" value="Poster Url" style="rounded=1;whiteSpace=wrap;html=1;" vertex="1" parent="q2HD8VKpV2fzyemEzLiY-168">
          <mxGeometry x="470" y="185" width="80" height="20" as="geometry" />
        </mxCell>
        <mxCell id="tpKejdH_pxKhNe_Vss-R-4" value="hasPoster" style="edgeLabel;html=1;align=center;verticalAlign=middle;resizable=0;points=[];" vertex="1" connectable="0" parent="q2HD8VKpV2fzyemEzLiY-168">
          <mxGeometry x="520" y="259.99925925925913" as="geometry" />
        </mxCell>
        <mxCell id="q2HD8VKpV2fzyemEzLiY-169" value="" style="endArrow=none;html=1;rounded=0;" parent="1" edge="1">
          <mxGeometry width="50" height="50" relative="1" as="geometry">
            <mxPoint x="600" y="30" as="sourcePoint" />
            <mxPoint x="640" y="30" as="targetPoint" />
          </mxGeometry>
        </mxCell>
      </root>
    </mxGraphModel>
  </diagram>
</mxfile>
